<svg id="PATTERN" xmlns="http://www.w3.org/2000/svg" xmlns:xlink="http://www.w3.org/1999/xlink" viewBox="0 0 750 500"><defs><style>.cls-1,.cls-2{fill:none;}.cls-2{stroke:#001334;stroke-linecap:round;stroke-linejoin:round;stroke-width:3px;}.cls-3{opacity:0.14;fill:url(#Motivo_nuevo_2);}</style><pattern id="Motivo_nuevo_2" data-name="Motivo nuevo 2" width="179.4" height="310.5" patternUnits="userSpaceOnUse" viewBox="0 0 179.4 310.5"><rect class="cls-1" width="179.4" height="310.5"/><polyline class="cls-2" points="179.4 207 89.77 258.75 89.77 362.25"/><polyline class="cls-2" points="194.34 215.63 104.71 267.38 104.71 370.87"/><polyline class="cls-2" points="209.28 224.25 119.65 276 119.65 379.5"/><polyline class="cls-2" points="224.22 232.88 134.59 284.63 134.59 388.12"/><polyline class="cls-2" points="239.15 241.5 149.52 293.25 149.52 396.75"/><polyline class="cls-2" points="254.09 250.13 164.46 301.88 164.46 405.37"/><polyline class="cls-2" points="269.03 258.75 179.4 310.5 179.4 414"/><line class="cls-2" x1="179.4" y1="310.5" x2="269.03" y2="258.75"/><line class="cls-2" x1="269.03" y1="276" x2="179.4" y2="327.75"/><line class="cls-2" x1="269.03" y1="293.25" x2="179.4" y2="345"/><line class="cls-2" x1="269.03" y1="310.5" x2="179.4" y2="362.25"/><polyline class="cls-2" points="0 207 -89.63 258.75 -89.63 362.25"/><polyline class="cls-2" points="14.94 215.63 -74.69 267.38 -74.69 370.87"/><polyline class="cls-2" points="29.88 224.25 -59.75 276 -59.75 379.5"/><polyline class="cls-2" points="44.81 232.88 -44.81 284.63 -44.81 388.12"/><polyline class="cls-2" points="59.75 241.5 -29.88 293.25 -29.88 396.75"/><polyline class="cls-2" points="74.69 250.13 -14.94 301.88 -14.94 405.37"/><polyline class="cls-2" points="89.63 258.75 0 310.5 0 414"/><line class="cls-2" y1="310.5" x2="89.63" y2="258.75"/><line class="cls-2" x1="89.63" y1="276" y2="327.75"/><line class="cls-2" x1="89.63" y1="293.25" y2="345"/><line class="cls-2" x1="89.63" y1="310.5" y2="362.25"/><polyline class="cls-2" points="269.1 51.76 179.47 103.5 179.47 207"/><polyline class="cls-2" points="89.7 51.76 0.07 103.5 0.07 207"/><polyline class="cls-2" points="104.64 60.38 15.01 112.13 15.01 215.62"/><polyline class="cls-2" points="119.58 69 29.95 120.75 29.95 224.25"/><polyline class="cls-2" points="134.51 77.63 44.88 129.38 44.88 232.87"/><polyline class="cls-2" points="149.45 86.25 59.82 138 59.82 241.5"/><polyline class="cls-2" points="164.39 94.88 74.76 146.63 74.76 250.12"/><polyline class="cls-2" points="179.33 103.5 89.7 155.25 89.7 258.75"/><line class="cls-2" x1="89.7" y1="155.25" x2="179.33" y2="103.5"/><line class="cls-2" x1="179.33" y1="120.75" x2="89.7" y2="172.5"/><line class="cls-2" x1="179.33" y1="138" x2="89.7" y2="189.75"/><line class="cls-2" x1="179.33" y1="155.25" x2="89.7" y2="207"/><line class="cls-2" x1="179.33" y1="172.5" x2="89.7" y2="224.25"/><line class="cls-2" x1="179.33" y1="189.75" x2="89.7" y2="241.5"/><line class="cls-2" x1="179.33" y1="207" x2="89.7" y2="258.75"/><polyline class="cls-2" points="-0.07 103.5 -89.7 155.25 -89.7 258.75"/><line class="cls-2" x1="-89.7" y1="155.25" x2="-0.07" y2="103.5"/><line class="cls-2" x1="-0.07" y1="120.75" x2="-89.7" y2="172.5"/><line class="cls-2" x1="-0.07" y1="138" x2="-89.7" y2="189.75"/><line class="cls-2" x1="-0.07" y1="155.25" x2="-89.7" y2="207"/><line class="cls-2" x1="-0.07" y1="172.5" x2="-89.7" y2="224.25"/><line class="cls-2" x1="-0.07" y1="189.75" x2="-89.7" y2="241.5"/><line class="cls-2" x1="-0.07" y1="207" x2="-89.7" y2="258.75"/><polyline class="cls-2" points="179.4 -103.5 89.77 -51.75 89.77 51.75"/><polyline class="cls-2" points="194.34 -94.87 104.71 -43.12 104.71 60.37"/><polyline class="cls-2" points="209.28 -86.25 119.65 -34.5 119.65 69"/><polyline class="cls-2" points="224.22 -77.62 134.59 -25.87 134.59 77.62"/><polyline class="cls-2" points="239.15 -69 149.52 -17.25 149.52 86.25"/><polyline class="cls-2" points="254.09 -60.37 164.46 -8.62 164.46 94.87"/><polyline class="cls-2" points="269.03 -51.75 179.4 0 179.4 103.5"/><line class="cls-2" x1="179.4" x2="269.03" y2="-51.75"/><line class="cls-2" x1="269.03" y1="-34.5" x2="179.4" y2="17.25"/><line class="cls-2" x1="269.03" y1="-17.25" x2="179.4" y2="34.5"/><line class="cls-2" x1="269.03" x2="179.4" y2="51.75"/><line class="cls-2" x1="269.03" y1="17.25" x2="179.4" y2="69"/><line class="cls-2" x1="269.03" y1="34.5" x2="179.4" y2="86.25"/><line class="cls-2" x1="269.03" y1="51.75" x2="179.4" y2="103.5"/><polyline class="cls-2" points="0 -103.5 -89.63 -51.75 -89.63 51.75"/><polyline class="cls-2" points="14.94 -94.87 -74.69 -43.12 -74.69 60.37"/><polyline class="cls-2" points="29.88 -86.25 -59.75 -34.5 -59.75 69"/><polyline class="cls-2" points="44.81 -77.62 -44.81 -25.87 -44.81 77.62"/><polyline class="cls-2" points="59.75 -69 -29.88 -17.25 -29.88 86.25"/><polyline class="cls-2" points="74.69 -60.37 -14.94 -8.62 -14.94 94.87"/><polyline class="cls-2" points="89.63 -51.75 0 0 0 103.5"/><line class="cls-2" x2="89.63" y2="-51.75"/><line class="cls-2" x1="89.63" y1="-34.5" y2="17.25"/><line class="cls-2" x1="89.63" y1="-17.25" y2="34.5"/><line class="cls-2" x1="89.63" y2="51.75"/><line class="cls-2" x1="89.63" y1="17.25" y2="69"/><line class="cls-2" x1="89.63" y1="34.5" y2="86.25"/><line class="cls-2" x1="89.63" y1="51.75" y2="103.5"/></pattern></defs><rect class="cls-3" width="750" height="500"/></svg>