<svg id="Camada_1" data-name="Camada 1" xmlns="http://www.w3.org/2000/svg" viewBox="0 0 321.22 401"><defs><style>.cls-1{fill:none;}.cls-1,.cls-2{stroke:#2323c6;stroke-linecap:round;stroke-linejoin:round;}.cls-2{fill:#2323c6;}</style></defs><polygon class="cls-1" points="275.5 0.5 275.5 280.05 200.27 355.28 0.5 355.28 0.5 0.5 275.5 0.5"/><polygon class="cls-2" points="275.5 280.05 200.27 355.28 200.27 280.05 275.5 280.05"/><line class="cls-1" x1="67.47" y1="45.74" x2="233.49" y2="45.74"/><line class="cls-1" x1="42.5" y1="76.98" x2="233.49" y2="76.98"/><line class="cls-1" x1="42.5" y1="108.23" x2="233.49" y2="108.23"/><line class="cls-1" x1="42.5" y1="139.47" x2="233.49" y2="139.47"/><line class="cls-1" x1="42.5" y1="170.71" x2="233.49" y2="170.71"/><line class="cls-1" x1="42.5" y1="201.96" x2="233.49" y2="201.96"/><line class="cls-1" x1="42.5" y1="233.2" x2="233.49" y2="233.2"/><line class="cls-1" x1="42.5" y1="264.45" x2="208.52" y2="264.45"/><polyline class="cls-1" points="288.6 45.72 320.72 45.72 320.72 325.27 245.49 400.5 45.72 400.5 45.72 367.44"/><polygon class="cls-2" points="320.72 325.27 245.49 400.5 245.49 325.27 320.72 325.27"/></svg>