<svg width="512" height="512" viewBox="0 0 512 512" fill="none" xmlns="http://www.w3.org/2000/svg">
<path fill-rule="evenodd" clip-rule="evenodd" d="M231.5 1.05105C199.966 4.28705 166.957 13.949 139.603 27.949C126.059 34.882 108.553 46.116 107.658 48.45C106.088 52.539 106.985 57.138 109.923 60.077C114.533 64.686 117.745 64.1 130 56.413C193.857 16.358 273.014 9.01304 343 36.649C370.152 47.371 394.882 63.072 417.125 83.711C426.03 91.975 429.323 93.187 434.524 90.118L438 88.067V105.034V122H420.927H403.855L405.927 119.365C407.254 117.678 408 115.264 408 112.653C408 108.936 407.405 107.997 401.25 102.004C358.773 60.643 295.898 38.989 235.856 45.044C160.564 52.637 95.514 98.829 63.433 167.481C55.019 185.486 47.411 212.689 45.529 231.5C45.199 234.8 44.692 239.412 44.403 241.75L43.877 246H31.911H19.944L20.534 239.25C24.084 198.58 35.837 162.79 56.411 130C64.1 117.745 64.687 114.533 60.077 109.923C57.138 106.985 52.539 106.088 48.45 107.658C46.116 108.553 34.882 126.059 27.949 139.603C13.494 167.845 4.08099 200.555 1.07299 233C-1.02201 255.596 -0.22201 261.8 5.14499 264.575C8.78799 266.459 54.466 266.656 58.528 264.805C62.21 263.128 63.997 259.055 64.017 252.3C64.064 236.513 68.073 213.03 73.628 196C78.174 182.061 90.41 157.766 98.766 146.087C118.475 118.539 140.97 99.251 170.5 84.578C187.494 76.135 198.743 72.099 215.144 68.562C257.783 59.367 299.735 64.298 339 83.119C352.246 89.469 369.982 100.817 378.829 108.603L384.158 113.294L376.852 120.649C370.161 127.385 369.545 128.35 369.545 132.105C369.545 135.466 370.13 136.727 372.789 139.102L376.032 142H413.065C453.236 142 454.377 141.857 456.805 136.528C457.663 134.646 458 123.477 458 96.969V60.032L455.184 56.879C452.853 54.271 451.627 53.727 448.079 53.727C444.101 53.727 443.281 54.237 436.775 60.742L429.76 67.758L419.827 59.452C382.686 28.395 337.185 8.49705 288.5 2.02105C277.341 0.537047 242.319 -0.0589529 231.5 1.05105ZM75.4 75.4C71.659 79.141 71.103 82.364 73.425 86.855C76.867 93.51 87.133 93.51 90.575 86.855C93.229 81.722 91.612 75.885 86.855 73.425C82.364 71.103 79.141 71.659 75.4 75.4ZM199.5 102.147C196.384 103.84 133.046 167.166 131.434 170.2C129.621 173.614 129.618 176.361 131.425 179.855C133.623 184.105 136.863 185 150.047 185H162V242.6V300.2L165.4 303.6L168.8 307H204H239.2L242.6 303.6L246 300.2V242.6V185H258.05C271.323 185 274.77 183.994 276.805 179.528C278.295 176.26 278.322 173.506 276.895 170.684C275.322 167.575 212.054 104.163 208.8 102.434C205.615 100.743 202.276 100.64 199.5 102.147ZM224 145.5L243.481 165H238.787C236.206 165 232.914 165.538 231.472 166.195C225.943 168.714 226 168.051 226 229.95V287H204H182V230.047C182 188.021 181.687 172.407 180.805 170.472C179.2 166.949 175.106 165 169.309 165H164.519L184 145.5C194.714 134.775 203.714 126 204 126C204.286 126 213.286 134.775 224 145.5ZM270.826 206.712C269.355 207.625 267.668 209.434 267.076 210.733C266.348 212.33 266 231.527 266 270.047V327H253.95C240.677 327 237.23 328.006 235.195 332.472C233.622 335.924 233.687 338.507 235.429 341.8C237.91 346.491 302.211 409.798 305.25 410.543C306.762 410.914 309.238 410.909 310.75 410.533C313.797 409.775 378.122 346.457 380.577 341.8C382.379 338.38 382.379 335.633 380.575 332.145C378.377 327.895 375.137 327 361.953 327H350V270.047C350 228.021 349.687 212.407 348.805 210.472C346.394 205.181 345.016 204.998 307.8 205.027C277.622 205.05 273.179 205.253 270.826 206.712ZM330 282.05C330 349.749 329.235 345.533 341.77 346.918L347.04 347.5L327.52 366.99L308 386.481L288.48 366.99L268.96 347.5L274.23 346.918C286.765 345.533 286 349.749 286 282.05V225H308H330V282.05ZM453.11 247.396C449.524 249.383 448.075 252.841 448.035 259.506C447.983 268.401 445.313 289.299 442.989 299C434.395 334.883 417.165 365.898 391.554 391.584C345.863 437.412 280.292 456.992 216.5 443.857C187.451 437.876 154.772 421.91 132.658 402.895L127.817 398.731L135.136 391.363C141.839 384.615 142.455 383.651 142.455 379.895C142.455 376.534 141.87 375.273 139.211 372.898L135.968 370H99.031C72.523 370 61.354 370.337 59.472 371.195C54.143 373.623 54 374.764 54 414.935V451.968L56.816 455.121C59.147 457.729 60.373 458.273 63.921 458.273C67.899 458.273 68.719 457.763 75.225 451.258L82.24 444.242L92.37 452.728C126.061 480.949 167.833 500.382 211 507.917C294.487 522.489 377.296 496.441 436.868 436.868C479.624 394.113 505.336 339.304 510.927 279C513.022 256.404 512.222 250.2 506.855 247.425C503.008 245.436 456.692 245.41 453.11 247.396ZM491.411 272.25C487.524 315.722 475.117 352.467 453.161 385.528C415.363 442.447 357.479 479.26 289.5 489.612C272.736 492.165 239.162 492.156 222.5 489.594C173.765 482.101 131.439 461.906 95.844 429.163C85.872 419.99 82.768 418.76 77.476 421.882L74 423.933V406.966V390H91.073H108.145L106.073 392.635C104.741 394.328 103.999 396.741 103.996 399.385C103.992 403.22 104.526 404.011 111.835 411C154.371 451.675 216.812 472.939 276.144 466.956C350.144 459.493 413.707 415.289 446.475 348.5C456.587 327.889 464.381 301.384 466.471 280.5C466.801 277.2 467.308 272.587 467.597 270.25L468.123 266H480.046H491.969L491.411 272.25Z" fill="white"/>
</svg>
