<svg id="Camada_1" data-name="Camada 1" xmlns="http://www.w3.org/2000/svg" viewBox="0 0 1024 1024"><defs><style>.cls-1{fill:#f52b10;}.cls-2{fill:#f7f7f7;}.cls-3{fill:#ead57d;}.cls-4{fill:#f0553a;}.cls-5{fill:#e3e3e3;}.cls-6{fill:#dc4126;}.cls-7{fill:#fff;}.cls-8{fill:#19d77a;}</style></defs><path class="cls-1" d="M1024,512c0,282.75-229.25,512-512,512S0,794.75,0,512,229.25,0,512,0s512,229.25,512,512"/><path class="cls-2" d="M704.25,402.34v280H845.42c8.79,0,13.37-4.79,13.37-13.67V402.34Zm-285.5,0V668.67c0,8.88-4.54,13.67-13.37,13.67H184.09c-8.79,0-13.38-4.79-13.38-13.67V402.34Z"/><path class="cls-3" d="M405.38,338.34H184.13c-8.83,0-13.38,4.83-13.38,13.66v50.34h248V352C418.75,343.17,414.21,338.34,405.38,338.34Z"/><path class="cls-4" d="M845.33,338.34H704.21v64h154.5V352C858.71,343.17,854.17,338.34,845.33,338.34Z"/><rect class="cls-5" x="657.25" y="394.34" width="49.5" height="288"/><rect class="cls-6" x="657.25" y="338.34" width="49.5" height="64"/><path class="cls-7" d="M666.75,290.34V780.67c0,8.88-4.54,13.67-13.37,13.67H376.09c-8.79,0-13.38-4.79-13.38-13.67V290.34Z"/><path class="cls-8" d="M653.33,226.34H376.13c-8.83,0-13.38,4.83-13.38,13.66v58.34h304V240c0-8.83-4.54-13.66-13.37-13.66Z"/></svg>