<svg id="Camada_1" data-name="Camada 1" xmlns="http://www.w3.org/2000/svg" viewBox="0 0 2372 2372"><defs><style>.cls-1{fill:#f52b10;}.cls-2{fill:#f7f7f7;}.cls-3{fill:#ead57d;}.cls-4{fill:#f0553a;}.cls-5{fill:#e3e3e3;}.cls-6{fill:#dc4126;}.cls-7{fill:#fff;}.cls-8{fill:#19d77a;}</style></defs><path class="cls-1" d="M2377.68,1186c0,655-531,1186-1186,1186S5.68,1841,5.68,1186,536.72,0,1191.68,0s1186,531,1186,1186" transform="translate(-5.68)"/><path class="cls-2" d="M1630.63,932v648.6h327c20.36,0,31-11.1,31-31.65V932Zm-661.32,0v617c0,20.55-10.53,31.65-31,31.65H425.73c-20.36,0-31-11.1-31-31.65V932Z" transform="translate(-5.68)"/><path class="cls-3" d="M938.33,783.72H425.83c-20.46,0-31,11.2-31,31.65V932H969.31V815.37C969.31,794.92,958.78,783.72,938.33,783.72Z" transform="translate(-5.68)"/><path class="cls-4" d="M1957.45,783.72h-326.9V932h357.88V815.37C1988.43,794.92,1977.9,783.72,1957.45,783.72Z" transform="translate(-5.68)"/><rect class="cls-5" x="1516.08" y="913.44" width="114.67" height="667.13"/><rect class="cls-6" x="1516.08" y="783.72" width="114.67" height="148.25"/><path class="cls-7" d="M1543.78,672.54V1808.35c0,20.56-10.53,31.65-31,31.65H870.48c-20.36,0-31-11.09-31-31.65V672.54Z" transform="translate(-5.68)"/><path class="cls-8" d="M1512.7,524.29H870.58c-20.46,0-31,11.19-31,31.65V691.07h704.19V555.94c0-20.46-10.53-31.65-31-31.65Z" transform="translate(-5.68)"/></svg>